<svg width="1440" height="1046" viewBox="0 0 1440 1046" fill="none" xmlns="http://www.w3.org/2000/svg">
<mask id="mask0_179_308" style="mask-type:alpha" maskUnits="userSpaceOnUse" x="-330" y="-238" width="1956" height="1440">
<path d="M758.66 303.828C758.66 451.088 661.295 570.465 541.19 570.465C421.084 570.465 -329.322 53.9679 -329.322 -93.292C-329.322 -240.552 748.865 -37.8213 868.971 -37.8213C989.077 -37.8213 758.66 156.568 758.66 303.828Z" fill="url(#paint0_linear_179_308)"/>
<path d="M843.125 934.853C843.125 1082.11 745.76 1201.49 625.655 1201.49C505.549 1201.49 -163.542 1167.17 -163.542 1019.91C-163.542 872.645 -114.084 523.821 6.02185 523.821C126.127 523.821 843.125 787.593 843.125 934.853Z" fill="url(#paint1_radial_179_308)"/>
<path d="M1089.82 304.232C1413.89 596.92 1264.19 449.832 1542.53 442.422C1586.2 450.833 1660.32 451.233 1607.51 385.541C1541.5 303.427 1562.77 245.429 1480.27 155.965C1397.77 66.5009 1347.52 -24.3929 1222.97 -166.683C1098.41 -308.973 1088.83 -191.679 948.408 -202.798C807.988 -213.917 872.034 -196.26 678.29 10.1971C484.546 216.654 765.755 11.543 1089.82 304.232Z" fill="#D9D9D9"/>
<path d="M783.875 764.613C350.195 815.672 559.471 799.913 381.712 1014.23C346.623 1041.55 297.498 1097.06 381.712 1100.59C486.98 1105 516.607 1159.21 638.264 1156.06C759.921 1152.91 861.408 1174.97 1050.51 1174.97C1239.62 1174.97 1157.67 1090.5 1258.53 992.169C1359.38 893.835 1303.91 930.395 1276.18 648.629C1248.44 366.863 1217.55 713.555 783.875 764.613Z" fill="#D9D9D9"/>
</mask>
<g mask="url(#mask0_179_308)">
<line x1="-31.7949" y1="609.548" x2="1479.78" y2="609.548" stroke="white" stroke-opacity="0.09" stroke-width="1.2607"/>
<line x1="-31.7949" y1="932.287" x2="1479.78" y2="932.287" stroke="white" stroke-opacity="0.09" stroke-width="1.2607"/>
<line x1="-31.7949" y1="286.81" x2="1479.78" y2="286.81" stroke="white" stroke-opacity="0.09" stroke-width="1.2607"/>
<line x1="-31.7949" y1="448.178" x2="1479.78" y2="448.178" stroke="white" stroke-opacity="0.09" stroke-width="1.2607"/>
<line x1="-31.7949" y1="770.916" x2="1479.78" y2="770.916" stroke="white" stroke-opacity="0.09" stroke-width="1.2607"/>
<line x1="-31.7949" y1="125.44" x2="1479.78" y2="125.44" stroke="white" stroke-opacity="0.09" stroke-width="1.2607"/>
<line x1="-31.7949" y1="528.863" x2="1479.78" y2="528.863" stroke="white" stroke-opacity="0.09" stroke-width="1.2607"/>
<line x1="-31.7949" y1="851.601" x2="1479.78" y2="851.601" stroke="white" stroke-opacity="0.09" stroke-width="1.2607"/>
<line x1="-31.7949" y1="206.125" x2="1479.78" y2="206.125" stroke="white" stroke-opacity="0.09" stroke-width="1.2607"/>
<line x1="-31.7949" y1="1012.97" x2="1479.78" y2="1012.97" stroke="white" stroke-opacity="0.09" stroke-width="1.2607"/>
<line x1="-31.7949" y1="367.493" x2="1479.78" y2="367.493" stroke="white" stroke-opacity="0.09" stroke-width="1.2607"/>
<line x1="-31.7949" y1="690.233" x2="1479.78" y2="690.233" stroke="white" stroke-opacity="0.09" stroke-width="1.2607"/>
<line x1="-31.7949" y1="44.7549" x2="1479.78" y2="44.7549" stroke="white" stroke-opacity="0.09" stroke-width="1.2607"/>
<line x1="15.48" y1="-64.2949" x2="15.4799" y2="1103.11" stroke="white" stroke-opacity="0.09" stroke-width="1.2607"/>
<line x1="660.96" y1="-64.2949" x2="660.96" y2="1103.11" stroke="white" stroke-opacity="0.09" stroke-width="1.2607"/>
<line x1="338.22" y1="-64.2949" x2="338.22" y2="1103.11" stroke="white" stroke-opacity="0.09" stroke-width="1.2607"/>
<line x1="983.697" y1="-64.2949" x2="983.697" y2="1103.11" stroke="white" stroke-opacity="0.09" stroke-width="1.2607"/>
<line x1="1306.44" y1="-64.2949" x2="1306.44" y2="1103.11" stroke="white" stroke-opacity="0.09" stroke-width="1.2607"/>
<line x1="176.85" y1="-64.2949" x2="176.85" y2="1103.11" stroke="white" stroke-opacity="0.09" stroke-width="1.2607"/>
<line x1="822.326" y1="-64.2949" x2="822.326" y2="1103.11" stroke="white" stroke-opacity="0.09" stroke-width="1.2607"/>
<line x1="499.59" y1="-64.2949" x2="499.59" y2="1103.11" stroke="white" stroke-opacity="0.09" stroke-width="1.2607"/>
<line x1="1145.07" y1="-64.2949" x2="1145.07" y2="1103.11" stroke="white" stroke-opacity="0.09" stroke-width="1.2607"/>
<line x1="96.1675" y1="-64.2949" x2="96.1674" y2="1103.11" stroke="white" stroke-opacity="0.09" stroke-width="1.2607"/>
<line x1="741.644" y1="-64.2949" x2="741.644" y2="1103.11" stroke="white" stroke-opacity="0.09" stroke-width="1.2607"/>
<line x1="418.903" y1="-64.2949" x2="418.903" y2="1103.11" stroke="white" stroke-opacity="0.09" stroke-width="1.2607"/>
<line x1="1064.38" y1="-64.2949" x2="1064.38" y2="1103.11" stroke="white" stroke-opacity="0.09" stroke-width="1.2607"/>
<line x1="1387.12" y1="-64.2949" x2="1387.12" y2="1103.11" stroke="white" stroke-opacity="0.09" stroke-width="1.2607"/>
<line x1="257.538" y1="-64.2949" x2="257.538" y2="1103.11" stroke="white" stroke-opacity="0.09" stroke-width="1.2607"/>
<line x1="903.013" y1="-64.2949" x2="903.013" y2="1103.11" stroke="white" stroke-opacity="0.09" stroke-width="1.2607"/>
<line x1="580.273" y1="-64.2949" x2="580.273" y2="1103.11" stroke="white" stroke-opacity="0.09" stroke-width="1.2607"/>
<line x1="1225.75" y1="-64.2949" x2="1225.75" y2="1103.11" stroke="white" stroke-opacity="0.09" stroke-width="1.2607"/>
<g opacity="0.7">
<rect x="822.385" y="770.859" width="80.2262" height="80.2262" fill="#70BCF3" fill-opacity="0.36"/>
<rect x="418.962" y="770.859" width="80.2262" height="80.2262" fill="#1E79D8" fill-opacity="0.25"/>
<rect x="1145.58" y="206.983" width="80.2262" height="79.0801" fill="#1D73B0" fill-opacity="0.25"/>
<rect x="499.188" y="126.757" width="80.2262" height="79.0801" fill="#70BCF3" fill-opacity="0.3"/>
<rect x="1064.21" y="287.209" width="80.2262" height="79.0801" fill="#1D73B0" fill-opacity="0.25"/>
<rect x="417.816" y="206.983" width="80.2262" height="79.0801" fill="#70BCF3" fill-opacity="0.3"/>
<rect x="1064.21" y="206.983" width="80.2262" height="79.0801" fill="#1D73B0" fill-opacity="0.25"/>
<rect x="417.816" y="126.757" width="80.2262" height="79.0801" fill="#70BCF3" fill-opacity="0.3"/>
<rect x="338.736" y="770.859" width="80.2262" height="80.2262" fill="#1E79D8" fill-opacity="0.25"/>
<rect x="338.736" y="851.085" width="80.2262" height="81.3723" fill="#1E79D8" fill-opacity="0.25"/>
<rect x="177.137" y="690.633" width="80.2262" height="80.2262" fill="#1E79D8" fill-opacity="0.25"/>
<rect x="983.984" y="45.3848" width="80.2262" height="80.2262" fill="#70BCF3" fill-opacity="0.6"/>
<rect x="903.758" y="-46.3022" width="80.2262" height="80.2262" fill="#70BCF3" fill-opacity="0.6"/>
<rect x="902.881" y="44.2388" width="80.2262" height="81.3723" fill="#70BCF3" fill-opacity="0.6"/>
<rect x="177.138" y="124.465" width="81.3723" height="82.5184" fill="#70BCF3" fill-opacity="0.24"/>
<rect x="95.7656" y="44.2388" width="81.3723" height="80.2262" fill="#70BCF3" fill-opacity="0.24"/>
<rect x="15.5391" y="45.3848" width="81.3723" height="80.2262" fill="#70BCF3" fill-opacity="0.24"/>
<rect x="95.7656" y="124.465" width="81.3723" height="82.5184" fill="#70BCF3" fill-opacity="0.24"/>
<rect x="418.963" y="-35.9873" width="81.3723" height="80.2262" fill="#1E79D8"/>
<rect x="177.138" y="286.063" width="80.2262" height="81.3723" fill="#70BCF3" fill-opacity="0.24"/>
<rect x="1145.58" y="690.633" width="80.2262" height="80.2262" fill="#1E79D8" fill-opacity="0.63"/>
<rect x="1225.81" y="770.859" width="80.2262" height="80.2262" fill="#1E79D8" fill-opacity="0.63"/>
</g>
</g>
<defs>
<linearGradient id="paint0_linear_179_308" x1="190.085" y1="-19.5411" x2="644.567" y2="222.513" gradientUnits="userSpaceOnUse">
<stop stop-color="white"/>
<stop offset="1" stop-color="white" stop-opacity="0"/>
</linearGradient>
<radialGradient id="paint1_radial_179_308" cx="0" cy="0" r="1" gradientUnits="userSpaceOnUse" gradientTransform="translate(155.414 941.112) rotate(-29.3932) scale(777.019 1335.47)">
<stop stop-color="white"/>
<stop offset="1" stop-color="white" stop-opacity="0"/>
</radialGradient>
</defs>
</svg>
